<svg xmlns="http://www.w3.org/2000/svg" xml:space="preserve" id="Layer_1" x="0" y="0" style="enable-background:new 0 0 1119.7 1080" version="1.1" viewBox="0 0 1119.7 1080"><style>.st2{fill:#9cd1fb}.st3{fill:#05bb72}.st5{fill:#fff}</style><ellipse cx="578.2" cy="539.8" rx="521.8" ry="365.1" style="fill:none;stroke:#eee;stroke-width:17.0265;stroke-miterlimit:9.9999" transform="rotate(-45.001 578.157 539.81)"/><circle cx="578.2" cy="539.8" r="521.8" style="fill:none;stroke:#d7d7d7;stroke-width:17.0265;stroke-miterlimit:10"/><path d="M329.1 132.8h-118c-29.6 0-53.5-24-53.5-53.5 0-29.6 24-53.5 53.5-53.5h118c29.6 0 53.5 24 53.5 53.5 0 29.4-23.9 53.5-53.5 53.5z" class="st2"/><path d="M226.8 711.8v72.3c0 69.4-45.8 133.6-107.6 152.6-61.7-19.1-107.5-83-107.5-152.6v-72.3L119.3 664l107.5 47.8z" class="st3"/><circle cx="980" cy="176.7" r="107.6" class="st3"/><path d="M305.2 267h531.3v549.1H305.2z" style="fill:#4582f4"/><circle cx="569.4" cy="435.8" r="104.7" class="st5" transform="rotate(-45.001 569.412 435.79)"/><path d="M372.2 720c0-42.1 25.1-80.3 63.8-96.8 92.7-40.4 198.2-40.4 291 0 38.8 16.5 63.8 54.7 63.8 96.8v29.9H372.2V720z" class="st5"/><path d="M460.5 816.1h376V421" style="fill:none;stroke:#241f20;stroke-width:16.9202;stroke-miterlimit:10"/><path d="M974 936.6H790.3l-29.1 53.5 29.1 53.5H974l29.1-53.5z" class="st2"/></svg>